<!DOCTYPE svg PUBLIC "-//W3C//DTD SVG 1.1//EN" "http://www.w3.org/Graphics/SVG/1.1/DTD/svg11.dtd">
<!-- Uploaded to: SVG Repo, www.svgrepo.com, Transformed by: SVG Repo Mixer Tools -->
<svg fill="#808080" height="64px" width="64px" version="1.1" id="Capa_1" xmlns="http://www.w3.org/2000/svg" xmlns:xlink="http://www.w3.org/1999/xlink" viewBox="0 0 330 330" xml:space="preserve" stroke="#808080">
<g id="SVGRepo_bgCarrier" stroke-width="0"/>
<g id="SVGRepo_tracerCarrier" stroke-linecap="round" stroke-linejoin="round"/>
<g id="SVGRepo_iconCarrier"> <g> <path d="M165,0C74.019,0,0,74.019,0,165s74.019,165,165,165c90.982,0,165-74.019,165-165S255.982,0,165,0z M165,300 c-74.439,0-135-60.561-135-135S90.561,30,165,30c74.439,0,135,60.561,135,135S239.439,300,165,300z"/> <path d="M239.247,90.754c-5.857-5.858-15.355-5.858-21.213,0l-53.033,53.033l-53.033-53.033c-5.857-5.858-15.355-5.858-21.213,0 c-5.858,5.858-5.858,15.355,0,21.213L143.788,165l-53.033,53.033c-5.858,5.858-5.858,15.355,0,21.213 c2.929,2.929,6.768,4.394,10.606,4.394c3.839,0,7.678-1.464,10.606-4.394l53.033-53.033l53.033,53.033 c2.929,2.929,6.768,4.394,10.606,4.394c3.839,0,7.678-1.464,10.607-4.394c5.858-5.858,5.858-15.355,0-21.213L186.214,165 l53.033-53.033C245.105,106.109,245.105,96.612,239.247,90.754z"/> </g> </g>
</svg>